<?xml version="1.0" encoding="UTF-8" standalone="no"?>
<svg
   xmlns:dc="http://purl.org/dc/elements/1.1/"
   xmlns:cc="http://creativecommons.org/ns#"
   xmlns:rdf="http://www.w3.org/1999/02/22-rdf-syntax-ns#"
   xmlns:svg="http://www.w3.org/2000/svg"
   xmlns="http://www.w3.org/2000/svg"
   viewBox="0 0 141.33749 67.206253"
   height="67.206253"
   width="141.33749"
   xml:space="preserve"
   version="1.1"
   id="svg2"><metadata
     id="metadata8"><rdf:RDF><cc:Work
         rdf:about=""><dc:format>image/svg+xml</dc:format><dc:type
           rdf:resource="http://purl.org/dc/dcmitype/StillImage" /></cc:Work></rdf:RDF></metadata><defs
     id="defs6" /><g
     transform="matrix(1.25,0,0,-1.25,0,67.20625)"
     id="g10"><g
       transform="translate(13.939,23.363)"
       id="g12"><g
         id="g14"><g
           id="g16"><g
             id="g18"><path
               id="path20"
               style="fill:none;stroke:#000000;stroke-width:0.3985;stroke-linecap:butt;stroke-linejoin:miter;stroke-miterlimit:10;stroke-dasharray:none;stroke-opacity:1"
               d="m -13.73996,-14.04431 27.47993,0 0,28.08862 -27.47993,0 0,-28.08862 z" /><g
               transform="translate(-10.419,-10.724)"
               id="g22"><g
                 id="g24"><g
                   transform="translate(3.354,10.783)"
                   id="g26"><g
                     transform="matrix(0.9063,0.4226,-0.4226,0.9063,3.668231,-24.132311)"
                     id="g28"><text
                       id="text30"
                       style="font-variant:normal;font-weight:normal;font-size:11.9552002px;font-family:CMBX12;-inkscape-font-specification:CMBX12;writing-mode:lr-tb;fill:#00527d;fill-opacity:1;fill-rule:nonzero;stroke:none"
                       transform="matrix(1,0,0,-1,6.874,23.422)"><tspan
                         id="tspan32"
                         y="0"
                         x="0">o</tspan></text>
<g
                       transform="translate(6.874,23.422)"
                       id="g34" /></g><g
                     transform="translate(9.603,-0.018)"
                     id="g36"><g
                       transform="matrix(0.9063,0.4226,-0.4226,0.9063,-5.0425747,-28.174225)"
                       id="g38"><text
                         id="text40"
                         style="font-variant:normal;font-weight:normal;font-size:11.9552002px;font-family:CMBX12;-inkscape-font-specification:CMBX12;writing-mode:lr-tb;fill:#00527d;fill-opacity:1;fill-rule:nonzero;stroke:none"
                         transform="matrix(1,0,0,-1,16.477,23.404)"><tspan
                           id="tspan42"
                           y="0"
                           x="0">d</tspan></text>
<g
                         transform="translate(16.477,23.404)"
                         id="g44" /></g><g
                       transform="translate(-16.477,-23.404)"
                       id="g46"><text
                         id="text48"
                         style="font-variant:normal;font-weight:normal;font-size:11.9552002px;font-family:CMBX12;-inkscape-font-specification:CMBX12;writing-mode:lr-tb;fill:#00527d;fill-opacity:1;fill-rule:nonzero;stroke:none"
                         transform="matrix(1,0,0,-1,3.52,12.639)"><tspan
                           id="tspan50"
                           y="0"
                           x="0 12.757394">ML</tspan></text>
<g
                         transform="translate(3.52,12.639)"
                         id="g52" /></g></g></g></g><g
                 transform="translate(10.419,10.724)"
                 id="g54" /></g></g><g
             id="g56"><g
               transform="translate(45.805,-20.042)"
               id="g58"><g
                 id="g60"><g
                   transform="translate(20.042,20.042)"
                   id="g62"><g
                     id="g64"><g
                       id="g66"><g
                         id="g68"><path
                           id="path70"
                           style="fill:none;stroke:#000000;stroke-width:0.3985;stroke-linecap:butt;stroke-linejoin:miter;stroke-miterlimit:10;stroke-dasharray:none;stroke-opacity:1"
                           d="m -19.84311,-19.8431 49.60777,0 m -49.60777,4.96078 49.60777,0 m -49.60777,4.96078 49.60777,0 m -49.60777,4.96077 49.60777,0 M -19.84311,0 29.76466,0 m -49.60777,4.96077 49.60777,0 m -49.60777,4.96077 49.60777,0 m -49.60777,4.96078 49.60777,0 m -49.60777,4.96078 49.60777,0 m -49.60777,-39.68621 0,39.68622 m 9.92156,-39.68622 0,39.68622 M 0,-19.84311 0,19.84311 m 9.92155,-39.68622 0,39.68622 m 9.92156,-39.68622 0,39.68622 m 9.91806,-39.68622 0,39.68622" /></g></g></g><g
                     transform="translate(-20.042,-20.042)"
                     id="g72" /></g></g><g
                 transform="translate(-45.805,20.042)"
                 id="g74" /></g></g><g
             id="g76"><g
               transform="translate(70.808,27.081)"
               id="g78"><g
                 id="g80" /><g
                 transform="translate(-70.808,-27.081)"
                 id="g82" /></g></g><g
             id="g84"><path
               id="path86"
               style="fill:none;stroke:#000000;stroke-width:1.98426998;stroke-linecap:butt;stroke-linejoin:miter;stroke-miterlimit:10;stroke-dasharray:none;stroke-opacity:1"
               d="m 13.93922,5.66927 17.4209,0" /><g
               transform="translate(31.36012,5.66927)"
               id="g88"><g
                 id="g90"><path
                   id="path92"
                   style="fill:#000000;fill-opacity:1;fill-rule:nonzero;stroke:#000000;stroke-width:1.98426998;stroke-linecap:butt;stroke-linejoin:miter;stroke-miterlimit:10;stroke-dasharray:none;stroke-opacity:1"
                   d="M 6.83525,0 C 5.99586,0.21378 2.30612,1.42522 0,2.74355 l 0,-5.4871 C 2.30612,-1.42522 5.99586,-0.21378 6.83525,0 Z" /></g></g></g><g
             id="g94"><path
               id="path96"
               style="fill:none;stroke:#000000;stroke-width:1.98426998;stroke-linecap:butt;stroke-linejoin:miter;stroke-miterlimit:10;stroke-dasharray:none;stroke-opacity:1"
               d="m 24.86513,-5.66927 17.4209,0" /><g
               transform="matrix(-1,0,0,-1,24.86513,-5.66927)"
               id="g98"><g
                 id="g100"><path
                   id="path102"
                   style="fill:#000000;fill-opacity:1;fill-rule:nonzero;stroke:#000000;stroke-width:1.98426998;stroke-linecap:butt;stroke-linejoin:miter;stroke-miterlimit:10;stroke-dasharray:none;stroke-opacity:1"
                   d="M 6.83525,0 C 5.99586,0.21378 2.30612,1.42522 0,2.74355 l 0,-5.4871 C 2.30612,-1.42522 5.99586,-0.21378 6.83525,0 Z" /></g></g></g></g></g></g></g></svg>