<?xml version="1.0" encoding="UTF-8" standalone="no"?>
<svg
   xmlns:dc="http://purl.org/dc/elements/1.1/"
   xmlns:cc="http://creativecommons.org/ns#"
   xmlns:rdf="http://www.w3.org/1999/02/22-rdf-syntax-ns#"
   xmlns:svg="http://www.w3.org/2000/svg"
   xmlns="http://www.w3.org/2000/svg"
   viewBox="0 0 107.51 58.40625"
   height="58.40625"
   width="107.51"
   xml:space="preserve"
   version="1.1"
   id="svg2"><metadata
     id="metadata8"><rdf:RDF><cc:Work
         rdf:about=""><dc:format>image/svg+xml</dc:format><dc:type
           rdf:resource="http://purl.org/dc/dcmitype/StillImage" /></cc:Work></rdf:RDF></metadata><defs
     id="defs6" /><g
     transform="matrix(1.25,0,0,-1.25,0,58.40625)"
     id="g10"><g
       transform="translate(57.685,23.363)"
       id="g12"><g
         id="g14"><g
           id="g16"><g
             id="g18"><g
               transform="translate(-25.003,-20.042)"
               id="g20"><g
                 id="g22"><g
                   transform="translate(20.042,20.042)"
                   id="g24"><g
                     id="g26"><g
                       id="g28"><g
                         id="g30"><path
                           id="path32"
                           style="fill:#808080;fill-opacity:1;fill-rule:nonzero;stroke:none"
                           d="m -19.84311,14.88232 0,4.96079 49.60777,0 0,-4.96079 -49.60777,0 z" /></g><g
                         id="g34"><path
                           id="path36"
                           style="fill:none;stroke:#000000;stroke-width:0.3985;stroke-linecap:butt;stroke-linejoin:miter;stroke-miterlimit:10;stroke-dasharray:none;stroke-opacity:1"
                           d="m -19.84311,-19.8431 49.60777,0 m -49.60777,4.96078 49.60777,0 m -49.60777,4.96078 49.60777,0 m -49.60777,4.96077 49.60777,0 M -19.84311,0 29.76466,0 m -49.60777,4.96077 49.60777,0 m -49.60777,4.96077 49.60777,0 m -49.60777,4.96078 49.60777,0 m -49.60777,4.96078 49.60777,0 m -49.60777,-39.68621 0,39.68622 m 9.92156,-39.68622 0,39.68622 M 0,-19.84311 0,19.84311 m 9.92155,-39.68622 0,39.68622 m 9.92156,-39.68622 0,39.68622 m 9.91806,-39.68622 0,39.68622" /></g></g></g><g
                     transform="translate(-20.042,-20.042)"
                     id="g38" /></g></g><g
                 transform="translate(25.003,20.042)"
                 id="g40" /></g></g><g
             id="g42"><path
               id="path44"
               style="fill:none;stroke:#000000;stroke-width:1.98426998;stroke-linecap:butt;stroke-linejoin:miter;stroke-miterlimit:10;stroke-dasharray:none;stroke-opacity:1"
               d="m -56.69362,0 17.24477,0" /><g
               transform="translate(-39.44885,0)"
               id="g46"><g
                 id="g48"><path
                   id="path50"
                   style="fill:#000000;fill-opacity:1;fill-rule:nonzero;stroke:#000000;stroke-width:1.98426998;stroke-linecap:butt;stroke-linejoin:miter;stroke-miterlimit:10;stroke-dasharray:none;stroke-opacity:1"
                   d="M 6.83525,0 C 5.99586,0.21378 2.30612,1.42522 0,2.74355 l 0,-5.4871 C 2.30612,-1.42522 5.99586,-0.21378 6.83525,0 Z" /></g></g></g></g></g></g></g></svg>